<?xml version="1.0" encoding="UTF-8" standalone="no"?>
<!-- Created with Inkscape (http://www.inkscape.org/) -->

<svg
   version="1.1"
   id="svg2"
   width="954"
   height="900"
   viewBox="0 0 954 900"
   sodipodi:docname="littleaircraftRed.svg"
   inkscape:version="1.1.1 (3bf5ae0d25, 2021-09-20)"
   xmlns:inkscape="http://www.inkscape.org/namespaces/inkscape"
   xmlns:sodipodi="http://sodipodi.sourceforge.net/DTD/sodipodi-0.dtd"
   xmlns="http://www.w3.org/2000/svg"
   xmlns:svg="http://www.w3.org/2000/svg">
  <defs
     id="defs6" />
  <sodipodi:namedview
     id="namedview4"
     pagecolor="#ffffff"
     bordercolor="#666666"
     borderopacity="1.0"
     inkscape:pageshadow="2"
     inkscape:pageopacity="0.0"
     inkscape:pagecheckerboard="0"
     showgrid="false"
     inkscape:zoom="0.79888889"
     inkscape:cx="477.53825"
     inkscape:cy="450.62587"
     inkscape:window-width="1612"
     inkscape:window-height="1025"
     inkscape:window-x="68"
     inkscape:window-y="0"
     inkscape:window-maximized="1"
     inkscape:current-layer="g8" />
  <g
     inkscape:groupmode="layer"
     inkscape:label="Image"
     id="g8">
    <path
       style="fill:#ff0000;fill-opacity:1"
       d="m 450.99507,898.00791 c -9.35,-1.30628 -42.79352,-5.08952 -74.31892,-8.40718 -55.40137,-5.83032 -62.89474,-6.80974 -68.54965,-8.95973 l -2.63143,-1.00047 v -31.94802 -31.94803 l 2.47122,-2.93687 c 3.33448,-3.96281 4.87725,-4.32283 67.83045,-15.82895 29.59092,-5.4084 54.28352,-10.13126 54.87244,-10.49524 0.58893,-0.36397 5.05938,-20.58239 9.93434,-44.92982 l 8.86356,-44.26806 -2.49537,-27.09725 c -2.63974,-28.6649 -7.21243,-74.13773 -10.4679,-104.09726 -2.3703,-21.81352 -6.00874,-78.46868 -6.00874,-93.56381 v -10.93619 h -36.62783 -36.62783 l -42.12217,-5.04229 c -23.16719,-2.77327 -47.07217,-5.62519 -53.12217,-6.33762 -6.05,-0.71243 -67.07906,-7.9867 -135.62013,-16.16505 L 1.7548066,419.17634 1.1100386,404.63368 c -1.09778504,-24.76039 -0.90860804,-69.01398 0.327207,-76.54265 0.884524,-5.38858 1.771595,-7.60127 3.853431,-9.61192 l 2.704395,-2.61192 176.4999984,-11.67142 c 171.59432,-11.34703 177.46585,-11.6705 211.25,-11.63808 l 34.75,0.0333 0.002,-36.75 c 0.003,-59.90156 3.70069,-104.94893 12.60827,-153.59414 1.39427,-7.614281 2.27175,-14.107431 1.94996,-14.429221 -0.3218,-0.3218 -2.12238,0.148 -4.0013,1.04399 -3.20475,1.52824 -3.63833,2.35953 -7.00434,13.429231 -3.97116,13.05985 -9.25888,25.06796 -10.43195,23.69034 -0.41691,-0.48961 -3.39242,-6.39186 -6.61224,-13.11611 l -5.85422,-12.22591 2.54934,-4.774091 c 1.40188,-2.62575 3.50567,-7.69909 4.67483,-11.27409 4.17638,-12.77032 8.55221,-16.76206 16.98819,-15.497 2.53281,0.37982 5.87875,1.3492 7.43542,2.15418 5.34317,2.76307 5.76727,2.0859 9.17957,-14.65718 1.73742,-8.525 3.47314,-16.738217 3.85716,-18.251594 l 0.69821,-2.751594 -11.26945,0.751594 c -18.7703,1.25185 -53.41929,0.904339 -61.90865,-0.62091 -9.38006,-1.685278 -11.09622,-2.602953 -8.53365,-4.563156 3.74473,-2.864474 17.42612,-3.058329 75.26548,-1.066453 l 8.09262,0.278695 1.81121,-5.138291 c 2.23227,-6.3328 7.80995,-17.4004996 10.21592,-20.2712496 5.959,-7.110173 10.8823,-4.70500903 17.67141,8.6329596 1.81969,3.575 4.12358,8.812231 5.11975,11.63829 l 1.81121,5.138291 8.09262,-0.278695 c 57.83936,-1.991876 71.52075,-1.798021 75.26548,1.066453 2.56257,1.960203 0.84641,2.877878 -8.53365,4.563156 -8.48936,1.525249 -43.13835,1.87276 -61.90865,0.62091 l -11.26945,-0.751594 0.69821,2.751594 c 0.38402,1.513377 2.11974,9.726594 3.85716,18.251594 3.4123,16.74308 3.8364,17.42025 9.17957,14.65718 1.55667,-0.80498 4.90261,-1.77436 7.43542,-2.15418 8.43598,-1.26506 12.81181,2.72668 16.98819,15.497 1.16916,3.575 3.27295,8.64834 4.67509,11.27409 l 2.54934,4.774091 -5.85422,12.22591 c -3.21982,6.72425 -6.19533,12.6265 -6.61224,13.11611 -1.17307,1.37762 -6.46079,-10.63049 -10.43195,-23.69034 -3.36601,-11.069701 -3.79959,-11.900991 -7.00434,-13.429231 -1.87892,-0.89599 -3.6795,-1.36579 -4.0013,-1.04399 -0.32179,0.32179 0.55569,6.81494 1.94996,14.429221 8.90758,48.64521 12.60544,93.69258 12.60827,153.59414 l 0.002,36.75 34.75,-0.0333 c 33.78415,-0.0324 39.65568,0.29105 211.25,11.63808 l 176.5,11.67142 2.7044,2.61192 c 2.08183,2.01065 2.9689,4.22334 3.85343,9.61192 1.23581,7.52867 1.42499,51.78226 0.3272,76.54265 l -0.64476,14.54266 -124.62014,14.86973 c -68.54107,8.17831 -129.57013,15.45258 -135.62013,16.16501 -6.05,0.71243 -29.95498,3.56435 -53.12217,6.33762 l -42.12217,5.04229 H 559.1229 522.49507 v 10.93619 c 0,15.09513 -3.63844,71.75029 -6.00874,93.56381 -3.25547,29.95953 -7.82816,75.43236 -10.4679,104.09726 l -2.49537,27.09725 8.86356,44.26806 c 4.87496,24.34743 9.34541,44.56585 9.93434,44.92982 0.58892,0.36398 25.28152,5.08684 54.87244,10.49524 62.9532,11.50612 64.49597,11.86614 67.83045,15.82895 l 2.47122,2.93687 v 31.94803 31.94802 l -2.63143,1.00047 c -5.65255,2.14909 -13.13043,3.1259 -68.54336,8.95357 -31.52887,3.31583 -65.58972,7.1465 -75.69079,8.51262 -22.09161,2.98776 -27.6174,2.97671 -49.63442,-0.0993 z"
       id="path30" />
  </g>
</svg>
